<svg
        viewBox="0 0 20 20"
        fill="none"
        focusable="false"
        xmlns="http://www.w3.org/2000/svg"
>
    <path
            d="M7.34 2.664l2.192-.821c.173-.065.26-.098.349-.11a.834.834 0 01.238 0c.09.012.176.045.35.11l4.467 1.675c.624.234.936.351 1.166.554.203.179.36.404.456.657.109.287.109.62.109 1.286V10c0 .6-.096 1.177-.266 1.726m-1.716 2.962c-1.405 1.634-3.195 2.795-4.102 3.324-.185.108-.278.162-.408.19a.95.95 0 01-.35 0c-.13-.028-.222-.082-.407-.19-1.623-.946-6.085-3.921-6.085-8.012V4.814c0-.39.242-.738.606-.874M2.5 2.5l15 15"
            stroke="#E21212"
            stroke-width="1.5"
            stroke-linecap="round"
            stroke-linejoin="round"
    />
</svg>
